/* XPM */
static char *_99f41c303c343e18ad438b4c73f86c1Lb4ieD3fxyYiULiR[] = {
/* columns rows colors chars-per-pixel */
"16 16 187 2 ",
"   c None",
".  c #090608",
"X  c #0C0B0E",
"o  c #140F09",
"O  c #000011",
"+  c #000014",
"@  c #030714",
"#  c #0A0C10",
"$  c #110D17",
"%  c #111217",
"&  c #191610",
"*  c #1A1712",
"=  c #271B09",
"-  c #271F11",
";  c #271F14",
":  c #201B19",
">  c #201F1B",
",  c #292009",
"<  c #312102",
"1  c #342404",
"2  c #372706",
"3  c #362707",
"4  c #32260C",
"5  c #3E2E0C",
"6  c #2D2412",
"7  c #2C2616",
"8  c #2F2815",
"9  c #20201D",
"0  c #23231C",
"q  c #2A231C",
"w  c #2E2A1C",
"e  c #362A15",
"r  c #342B17",
"t  c #342E18",
"y  c #35301E",
"u  c #3F341B",
"i  c #3C341C",
"p  c #272623",
"a  c #292B22",
"s  c #24262C",
"d  c #352F21",
"f  c #333022",
"g  c #363124",
"h  c #3B3322",
"j  c #393621",
"k  c #3B3623",
"l  c #3A3325",
"z  c #3D3927",
"x  c #3D3A27",
"c  c #363729",
"v  c #3B3828",
"b  c #3E3A2A",
"n  c #353A30",
"m  c #4B3C14",
"M  c #4F3F16",
"N  c #413419",
"B  c #40361B",
"V  c #42391B",
"C  c #42381E",
"Z  c #453B1E",
"A  c #483A18",
"S  c #483B19",
"D  c #493B19",
"F  c #483A1B",
"G  c #4B3C18",
"H  c #493C1D",
"J  c #4A3E1C",
"K  c #4E3D1D",
"L  c #4C3E1C",
"P  c #4C3F1F",
"I  c #513E13",
"U  c #473C20",
"Y  c #403C26",
"T  c #453D24",
"R  c #463F26",
"E  c #473F26",
"W  c #403B29",
"Q  c #413C28",
"!  c #423C2A",
"~  c #403C32",
"^  c #3E433A",
"/  c #4F401D",
"(  c #4E401E",
")  c #53431B",
"_  c #57471B",
"`  c #5A471D",
"'  c #59471E",
"]  c #6F520F",
"[  c #775707",
"{  c #69561C",
"}  c #755712",
"|  c #705C1F",
" . c #74601A",
".. c #4D4021",
"X. c #4D4125",
"o. c #4E4124",
"O. c #4F4425",
"+. c #45422B",
"@. c #46422D",
"#. c #49432A",
"$. c #554621",
"%. c #574723",
"&. c #5A4921",
"*. c #514A2B",
"=. c #534C2F",
"-. c #5A4D28",
";. c #5B4D28",
":. c #5E4F2A",
">. c #5E5129",
",. c #5F502A",
"<. c #464331",
"1. c #4B4735",
"2. c #49483D",
"3. c #504A34",
"4. c #4F503F",
"5. c #5E5330",
"6. c #585135",
"7. c #595237",
"8. c #50503C",
"9. c #5F593F",
"0. c #614F20",
"q. c #655220",
"w. c #665321",
"e. c #675521",
"r. c #605528",
"t. c #625429",
"y. c #6E5C2C",
"u. c #6D5C2E",
"i. c #625731",
"p. c #605732",
"a. c #625832",
"s. c #60593B",
"d. c #6F6127",
"f. c #6F6029",
"g. c #786427",
"h. c #7F672B",
"j. c #7F6B2B",
"k. c #6A623F",
"l. c #7F7037",
"z. c #7F7949",
"x. c #717250",
"c. c #9A6E04",
"v. c #836D19",
"b. c #8D7319",
"n. c #A37B10",
"m. c #8B7734",
"M. c #817541",
"N. c #817945",
"B. c #A3811F",
"V. c #A4821C",
"C. c #AB8621",
"Z. c #AA933F",
"A. c #C89D20",
"S. c #C99E23",
"D. c #C09E2D",
"F. c #C6A722",
"G. c #CDA22A",
"H. c #CAA52F",
"J. c #CEA62E",
"K. c #DAAD25",
"L. c #C8A03A",
"P. c #CAA13A",
"I. c #D1A737",
"U. c #DFB23B",
"Y. c #E0B42F",
"T. c #8E844B",
"R. c #96884F",
"E. c #B69D40",
"W. c #B39B49",
"Q. c #B3A65F",
"!. c #8B8B68",
"~. c #8E8D68",
"^. c #908C63",
"/. c #B5B173",
"(. c #DFB441",
"). c #D4B457",
"_. c #D6B456",
"`. c #D7BF5E",
"'. c #DACA71",
"]. c #D8CB75",
"[. c #E2C969",
"{. c #E7CF68",
"}. c #EBD169",
"|. c #E3CF7C",
" X c #F6DD72",
".X c #E4D180",
"XX c #F4E280",
/* pixels */
"            {.).L.U.            ",
"        ].~.7.P Z M } I.        ",
"      Q.n 4 E <.x d 0 2 C.      ",
"    Z.9 m p.4.k.u.P %.Y - W.    ",
"  H.b A q.$.d b h ( h.' 8 +.[.  ",
"  j.g q.u & e.* + % U t.H o ^.  ",
"K.X.C A X x.<.# t.O @ 9.:.. ^  X",
"S.=.B r t R.t T.m.g.9 1.#.U 5..X",
"A.*.u B q B.{ z.;. .d.~ m.-.5.|.",
"Y.5 k G $ v.F.r 0 f.| 2.:.q j XX",
"  [ p ' A * b.D./.N.) :.i 6 l.  ",
"  J.< E w.*.s h U r ' ) +.< [.  ",
"    n.; P p.8.s.o.y.&.v = B.    ",
"      E.c , x 3.! x a 2 c.      ",
"        '.!.7.A J I ] G.        ",
"            }._.L.(.            "
};
