/* XPM */
static char *db590e9d6f6143a0a5e64303dca05b75VV1hIY12pAnxOdKF[] = {
/* columns rows colors chars-per-pixel */
"64 64 248 2 ",
"   c None",
".  c #000003",
"X  c #01010C",
"o  c #0C090C",
"O  c #0A0606",
"+  c #130C07",
"@  c #19120B",
"#  c #010213",
"$  c #0B0C14",
"%  c #010318",
"&  c #0A0C19",
"*  c #060915",
"=  c #110E15",
"-  c #0D1119",
";  c #141214",
":  c #1B1514",
">  c #1C1A15",
",  c #14151A",
"<  c #17191A",
"1  c #1B1A1A",
"2  c #18151A",
"3  c #231A0E",
"4  c #261A07",
"5  c #231C14",
"6  c #231E1A",
"7  c #2A1F14",
"8  c #37280B",
"9  c #2B2314",
"0  c #25221B",
"q  c #2A241B",
"w  c #2D291C",
"e  c #272315",
"r  c #342A13",
"t  c #3B2E14",
"y  c #342C1B",
"u  c #392E1A",
"i  c #312715",
"p  c #3D3115",
"a  c #3C331B",
"s  c #36301D",
"d  c #2A220E",
"f  c #1A1C23",
"g  c #0E1629",
"h  c #2C2B23",
"j  c #262623",
"k  c #342D21",
"l  c #312E2B",
"z  c #3B3523",
"x  c #363329",
"c  c #3D3A2B",
"v  c #393526",
"b  c #262E37",
"n  c #3A3A33",
"m  c #2D312A",
"M  c #1F2530",
"N  c #47350D",
"B  c #433415",
"V  c #42351B",
"C  c #45391B",
"Z  c #4A3D1B",
"A  c #493915",
"S  c #4D3A11",
"D  c #443C23",
"F  c #423D2C",
"G  c #4A3D22",
"H  c #423F31",
"J  c #4E411D",
"K  c #53431C",
"L  c #58461C",
"P  c #5B4A1D",
"I  c #574415",
"U  c #624E1C",
"Y  c #654D17",
"T  c #64511D",
"R  c #6A551D",
"E  c #6C551B",
"W  c #735A1B",
"Q  c #6E560C",
"!  c #7C621B",
"~  c #4D4224",
"^  c #45412D",
"/  c #4C442C",
"(  c #484529",
")  c #534523",
"_  c #544925",
"`  c #5B4B23",
"'  c #544A2C",
"]  c #5A4E2B",
"[  c #544727",
"{  c #5D522B",
"}  c #5E5026",
"|  c #4B4632",
" . c #4E4A33",
".. c #484638",
"X. c #534C33",
"o. c #524E38",
"O. c #5B5334",
"+. c #55523B",
"@. c #5B563B",
"#. c #5A5538",
"$. c #645324",
"%. c #6B5622",
"&. c #6D5A23",
"*. c #63542B",
"=. c #695B2C",
"-. c #735C23",
";. c #755D26",
":. c #645A34",
">. c #6B5D32",
",. c #635A39",
"<. c #624F22",
"1. c #786428",
"2. c #6C633C",
"3. c #6A6438",
"4. c #7B6C33",
"5. c #746637",
"6. c #7E723C",
"7. c #263342",
"8. c #5C5943",
"9. c #455050",
"0. c #625D43",
"q. c #6C6544",
"w. c #686547",
"e. c #736B47",
"r. c #797346",
"t. c #7A7A56",
"y. c #5E6341",
"u. c #8E6F1D",
"i. c #846922",
"p. c #8A6E23",
"a. c #836925",
"s. c #8C7329",
"d. c #937524",
"f. c #977A28",
"g. c #877739",
"h. c #8D7936",
"j. c #A07F27",
"k. c #A17F1E",
"l. c #877B45",
"z. c #7E8368",
"x. c #B88908",
"c. c #B88C17",
"v. c #BE9319",
"b. c #AE8918",
"n. c #988338",
"m. c #9B8126",
"M. c #A98728",
"N. c #B48E27",
"B. c #B89328",
"V. c #A78C38",
"C. c #AB983E",
"Z. c #B89D3E",
"A. c #AD942A",
"S. c #BBA23A",
"D. c #C69509",
"F. c #C2961B",
"G. c #C59918",
"H. c #D4A51A",
"J. c #E6B31C",
"K. c #C69C22",
"L. c #C59B29",
"P. c #C49A35",
"I. c #CAA22B",
"U. c #C6A028",
"Y. c #D7AA26",
"T. c #CAA333",
"R. c #CBA63B",
"E. c #CEAB3D",
"W. c #C6A337",
"Q. c #D9AC36",
"!. c #DCB13C",
"~. c #E4B52A",
"^. c #E8B624",
"/. c #E8B936",
"(. c #F1BE33",
"). c #E9B729",
"_. c #F7C328",
"`. c #EDC239",
"'. c #F5C535",
"]. c #FFE53C",
"[. c #F5C11F",
"{. c #8C8348",
"}. c #978745",
"|. c #928B57",
" X c #AA9648",
".X c #A49957",
"XX c #AB9346",
"oX c #B9A44A",
"OX c #B5A95D",
"+X c #B3A957",
"@X c #A49D6A",
"#X c #B7B16D",
"$X c #908F63",
"%X c #CEAB44",
"&X c #C6AA47",
"*X c #D1AD48",
"=X c #CBB44B",
"-X c #D3B24B",
";X c #DAB346",
":X c #D5BA5C",
">X c #D7B857",
",X c #C6B458",
"<X c #E3BC47",
"1X c #E1BE53",
"2X c #C5B666",
"3X c #D9BD62",
"4X c #D7BD67",
"5X c #C3BB77",
"6X c #E8C348",
"7X c #FED647",
"8X c #E9C95A",
"9X c #F4D050",
"0X c #F7E35A",
"qX c #DBC165",
"wX c #DCC46C",
"eX c #D2C265",
"rX c #DDC573",
"tX c #DDC878",
"yX c #C8C26B",
"uX c #E6CA66",
"iX c #FAD969",
"pX c #E1CD7C",
"aX c #E1CB75",
"sX c #EBD478",
"dX c #F8DE77",
"fX c #ECD765",
"gX c #FFE668",
"hX c #FFF66C",
"jX c #FEE879",
"kX c #FFF779",
"lX c #DEC056",
"zX c #9EA080",
"xX c #D2CF87",
"cX c #E6D587",
"vX c #E9DB96",
"bX c #EBD685",
"nX c #FEEC88",
"mX c #FFF68B",
"MX c #F6E699",
"NX c #FFF79A",
"BX c #ECE18A",
"VX c #EBDFA2",
"CX c #ECE1A2",
"ZX c #F4EAAA",
"AX c #FEFAA7",
"SX c #FEFAB4",
"DX c #F4EBB0",
"FX c #FFFFD0",
/* pixels */
"                                                                                                                                ",
"                                                      U.T.R.E.%X%XE.%X*X-X                                                      ",
"                                              E.>XaXtXtXpXrX4X3X>X*XR.P.L.P.P.-X>X                                              ",
"                                        T.aXvXCXVXMXnXnXdXuX1X1X<X;X;X/././.Q.L.N.L.*XaX                                        ",
"                                    E.tXVXSXSXNXbX2Xl.,.G z u q 1 q u Z Z a.j.Q.(.~.F.c.P.rX                                    ",
"                                I.wXcXMXSXNX#X#.5 O O 3 i C Z P E ; 7 C 6 : ; 7 K M.Q.(.G.x.T.aX                                ",
"                            G.-XtXsXNXBX|.0 . + E L Z j.%.I 5 C -.7 5 -.a.d.u.2 & % i a.!.(.G.x.%XcX                            ",
"                          K.:X:XjXmX$X< . > f.M.W @ ; 6 : 5.5.1 < g.>.: 2 @ ; D ' L %.# = a./.).x.G.3X                          ",
"                        I.>X>XkXxXm . I p.R p ; e .XoXk F OXV.7 h OXS.s u #Xh.: # @ p.;.Z # 6 N._.G.c.>X                        ",
"                      T.*X6XnXz.. d ` i.A z r.'  .}.P j h : = H v . X * , ,.j.G T {.q 9 -.M.K # ;.'.H.v.*X                      ",
"                    I.T.`.nX9.. p ' > . w ,XoXi 0 f ..8.q.0.,.O.X./ ' ( i o # # w 2XP.6 X 3 f.a.# k /.~.L.-X                    ",
"                  I.L./.BXb . f.f.. y. Xs 6 : | q.w.0.,.| | X.H / X.G [ *.<.` G , . , t C.y.o L %.i f ;X`.R.-X                  ",
"                U.v.~.cXb . f.%.X 4.fXK 5 / 3.3.' X.+.+.8. .h 6 j x G ' G G G U $.Z 6 X +.0XR X Z N.i 2 1X<X-X%X                ",
"              K.F.H.jX7.. s.S $ *.~ @ a 5.:.' { X. .X.@.+.o.&XxXP.s.F F ' [ G ) Z ` %.G X X ) R $ 7 N.9 j 8X6X:XR.              ",
"            G.K.D.gX9.. $.e y 0X*.O { ;._ ) { _ ' ,.@.( H 7 l..XB.a.k ] G [ [ G ) ` V G %.6 . 4.gX7 7 s.@ c iX>X3XP.            ",
"            I.x.7Xz.. d.p.X g.g.; &.$.~ _ ~ ( =.#.c x x h / w : j F ` V G ` G ` <.Z N 8 Z %.s % h.n.X u M.O r.gX3X>X            ",
"          K.F.J.5X% E E X *.> o %.U Z ) D ) 4.v h c +.e.,.| ( X.] G z G A Z ~ J Z L aX2XV V %.a X w -.# %.Z . 2XiXtXP.          ",
"          K.D.iXb 4 d.$ +XXXX R P Z J C } oXP j :.2.^ w c ^ n ,.>.[ *.*.X.) C C B P 8X9X` p Z %.a . oX,X. ~ N x nXuXuX          ",
"        U.v.'.$X. f.A h &X5 L R B B L L } v D 5.a e a [  .+. .x h F G ~ >.:.] G Z t S -.V K J Z R 6 , E.0 2 d.+ |.kXxX%X        ",
"        U.D.8Xg I f.X p o V R B _ n.I C > L <.5 p P ~ k * X # $ $ $ $ 2 5 V %.%.G Z u G =.Z Z Z J T # - [ . T W g cXsXaX        ",
"      G.v.'.|.. ) 3 {.5.. W K 8 l.h.r e %.L e L P 0 # # a U J w 1 < 1 : & & > J -.L C ) ] =.Z Z C P J X n.{.. B.t l.mXcX%X      ",
"      I.D.9Xb N T j fXP ! J J J I B q P y & 0 Z * # a A.s.P 6 < 1 1 < < 1 1 $ & V -.K G ~ X.*.C J B T ; n 0X> s 7 j MXbX4X      ",
"      F.^..X# d.a q S 6.n.r J J L e P y % < 1 % X f.`.T # * < 1 1 < 1 < 1 < 1 < * y ;.) ~ ' ,._ B J K ) . ` ^ # & . #XmXcX      ",
"    K.F.'.8.O M.; r $ } L C a I u V K * 1 1 $ . oX7Xe # < < > 1 $ X 1 1 < 1 < 1 < # F ;.) ' o.:.C C C $.0 & [ X $ . O.mXvX%X    ",
"    U.D.6Xb I Y X.2X: S B J J J w L a s 0 $ . OXhXe # 6 < 1 < $ m 5.X 1 2 1 < 1 1 < # X.;. .+.@.[ A Z _ D # ' ' v v X.jXCXqX    ",
"    G.Y.oX% Z 5 l.V.@ P C J L a y X # 0 1 . l.AX5.. 1 1 1 < 1 . t.hX+ & > 1 1 < < 1 $ 1 2.X.o.@.+.A C G ` ; < :. .F ( 2XZXpX    ",
"    G.).h.; d.0 9 5 C L J p J a t 3.' $ . m SXpXO & 1 1 1 ; - ; }.A.i.% - , 1 < < > < o ^ q.X.X.0.G B C { 0 , =.a q e l.AXcX    ",
"  U.G.'.#.5 f.> r 1 J Z p J J < : n.*.# . @XFXl.. 1 1 < < 0 . J d.. oX% * q ; ; 1 1 < * j e.c ..0.^ A C ] 0 0 ) k { . ;.mXCXT.  ",
"  K.G.'.' o 5 / 4Xe I a J J J * - X * $ 1 sXAX .. 0 * X . q.@Xo h.` a.2 T.1 X $ $ 1 1 : ; ...X5.H q.A K ~ ' $ * $ $ . A nXDX*X  ",
"  K.G./.^ # X >.Z.; U a p J s 0 w q 1 X { jXdXs X $ w OXI H AXw.w.gXN A.K.1 .XA.1 & q h q @.r.~ 9.5.e K $.*.X.v F ..8.5.fXDX>X  ",
"  I.G./.h . # 9 9 q P J a J J e e s 1 X 1.gXuXe * # A.5.Q |.O.l.|.P f.$.t V.6.f.XXX 6 o.j ,.g.y w.e X - $.*.U g.r.>.8.>.uXDX:X  ",
"  U.G.I.H n.*.5 > w J C a J p y 1 & > # s.9X8Xs # # &.r.k.XXz.> .Xo s.1 d.s..Xp.3 . 6 6.e k :. ...r.5.. 2 V  XBXQ.M.m _ uXDXqX  ",
"  U.H.M.&.hX:X5..X+ J J p J > g.h.0 , % u.'.9X( X J a C.S.+ $X@X=.e *.M.P : S.d.:.w.0 n.; w ..| ..5.m.x z > ..*.` +.m ~ uXDXqX  ",
"  I.G.Y.s r.w 5.Z.o K J p J r =.:.X 1 % W J.6X1.X K.[.I n.t.. OX2X. !.$.# M.Q &.mXr.s n.f > .. ...V.xX,X. e ` c ..| o.*.uXZXqX  ",
"  T.G.~.a . # r w 1 T p a J J r : y e % P J.Y.Q.$ * b.p.w +X#X$X X=XM.p.A.u.B S.1.. M.p.f e...^ F MXhXc.2 4.:.j o.x n %.uXDXqX  ",
"  %XG.^.Z % < > 3 0 U a J a U w q V 1 # q J.G._.R # X m.oX.X5Xh . 4.X J A.m.A.&.X 1 _.a * y.w. .H }.c.h.~ ] :.g.e {.n N jXZXqX  ",
"  -XG.^.T % * 1 eXD r J V J I y e u Z & % b.^.U.~.e # # > e . o < X < * X < $ # # U.Y.X j e. .+.0.l 7 s ~ a X.4.= g.9 S jXCXqX  ",
"    K.J.i., p.; =X} r P V C J C q y P 1 % C ^.F.^.I., # - - < > < 1 < < > < & X i.].K X  .q.X. .0.G B G _ ] h 1 & X . f.NXcX    ",
"    I.H.M.1 m.< r w e U C a J P a 5 a W 1 # m.[.c.^.Y.s # * , 1 1 1 6 < $ X o s.7XN.X 6 e.O./ 0.+.A V C { 0 q ^ X < . Z.NXcX    ",
"    Q.D.Y.q W P # p < U Z C B P a y q T P # ; Y.^.b.~.`.s.i X . X . . . o ` W.7XQ.; # :.q.G O.8./ B Z G ] @ ^ h 1 & 4 8XCXpX    ",
"    :Xv._.I e 1.+ eX,.r T a a Z T y y e ! V % 6 Y.).F.U.'.6XZ.g.3.2.6. X:XiXgX;X: X ~ r.[ D ,.@.V C Z ) 9 2.2X3 d.$ S jXvXrX    ",
"      G.J.d.; E $ h.f.- R Z a Z P J y w y ! r % = b.[.J.F.;X8XjXnXNXSXAXNXnXoX2 X z 4.` V a.,.G B J C ` $ }.s.A s.. M.nXcX      ",
"      E.D.).1 , ` o V # K R a C A T a r q a a.Z # # L B.J.^.`.9XiXjXAXAX5X#.. X C 1.} B }.}.G B Z Z K D X z 6 -.2 @ 9XvXpX      ",
"      aXx.).-.2 M.* a 4.1 E L r K C Y C a q y g.*.1 X X a E d.V.XX|.r.x X . 1 P -.<.Z ) g.O.V Z K C [ + g.x t d.X i.jXtXpX      ",
"        I.D.Y.2 %.V & gX*.9 W Z r n.$.T V k k w 3.l.' q % X # X X . . . 6 Z E -.` Z ) $.` V G Z Z K : 3.gX: f.a O 6XbXpX        ",
"        rXx._.-.2 d.: A s.# P W r ( l.B 1.D s k k v w.t.q.@.c q k z ~ J $.%.] ~ Z L U $.V Z S Z K C X h.K S f.X ! gXrXpX        ",
"          U.D.).1 P f.X e L & E U P B t J 5.] v v w x c | O.:.2.] ) ` *.X.O.[ K L U ` V G A g.h.p X { e # f.q + 7XaXrX          ",
"          aXx.^.N.% i.1.X =X Xo U i.oX/ p ) *.2.H H c h q 5 :. XJ C V [ _ Z L L P Z V G Z A l.` X +X&XX -.q . B.iX:XcX          ",
"            E.x._.} = a.; j E.q # P 4.=.w D ) ] ,.w. .c z c j : G [ ) V Z ` ) V G Z Z ` Z K t . y &Xe T M.# Y 0X:XaX            ",
"            cXF.D.'.k X f.e # ` _ , K ;.} ( ( _ ] ' @.@.q.X.r l H G G ` G y 7 ` U ` G C ) C $ O.K X K N.% d '.lX>XvX            ",
"              3XD.Y.<Xj B N.y . 8XoXX D 5.=.] / (  .o.+...| sX4XD / [ F G a.4X6Xf.y G K 9 # ,X>XX V d.2 @ (.8X%XcX              ",
"                -Xx.(.<X& S B.` % s.{ 5 :  .5.2.'  .o.X.o...-XL.x F H / V OX2XI G ) t ; 0 K a.5 a.j.1 $ ~.6XL.pX                ",
"                  R.F.6X8X1 @ p.T X > oX,Xd 0 ^ w.e.w.y.^ | D F ' G F D [ D 8 u i : y yXC.o X C i.& ; J.<XL.wX                  ",
"                    E.I.6XfXx . f.m.X - C.4.s ( j m +...8.q.@. .' O.,.] u D q q  .i 4.n.@ t f.u # t ^./.v.:X                    ",
"                      R.R.8XjXr.o 8 { y . * h 2X&XD > D x 1 h 1 2 j 6 q F : t yX=Xe X 3 1.f.q # W _.Y.x.:X                      ",
"                        R.=X8XjX#Xh d r 1.1.5 ; J n c eXW.w w .XXXi 7 2X=Xp q ( X h k p.-.* i N._.G.x.uX                        ",
"                          P.>XqXjXnX$X$ 4 Q f.! q 3 6 6 V f j e.a.j f v : 1 B Y <.[ v X : i.).).x.F.cX                          ",
"                            L.-XrXsXNXMXz.m 4 8 7 u M.Y y U V 8 = u <.Y p.i.K ;.i X 7 i.Y.(.G.x.E.CX                            ",
"                                W.wXcXMXAXZX@X3.9 O @ t A L ` p.u V -.K w & % 9 Z N.~.(.G.x.P.pX                                ",
"                                    *XaXCXSXSXNXbX2Xl.:.) u i 7 7 r r B K i.N.Y.(.Y.F.c.T.3X                                    ",
"                                        R.aXvXCXMXMXnXnXiXuX1X;X;X*X!./././.Y.L.B.L.%XaX                                        ",
"                                              *X:XrX4XaXtXaX3X3X>X*XR.P.L.P.P.*X:X                                              ",
"                                                      P.T.%X*X*X%X*X-X-X:X                                                      ",
"                                                                                                                                "
};
