/* XPM */
static char *b368649030ab4aded3bdeb342e0bee0dkTShLTHm02VuiaPQ[] = {
/* columns rows colors chars-per-pixel */
"32 32 215 2 ",
"   c None",
".  c #010102",
"X  c #01010C",
"o  c #0B0607",
"O  c #150D05",
"+  c #14100E",
"@  c #1B150E",
"#  c #010312",
"$  c #060A14",
"%  c #0A0C16",
"&  c #020418",
"*  c #0F0E18",
"=  c #120E15",
"-  c #0E101D",
";  c #151114",
":  c #191313",
">  c #13151A",
",  c #1C1B1A",
"<  c #1D1A15",
"1  c #271A07",
"2  c #301F04",
"3  c #241C13",
"4  c #261D1A",
"5  c #1F221E",
"6  c #2D210D",
"7  c #332101",
"8  c #36270B",
"9  c #2B2313",
"0  c #26221B",
"q  c #2C261B",
"w  c #2D291D",
"e  c #262214",
"r  c #322613",
"t  c #372C14",
"y  c #3A2E14",
"u  c #332C1B",
"i  c #322718",
"p  c #3D3217",
"a  c #3C321A",
"s  c #373118",
"d  c #221F22",
"f  c #2D2A23",
"g  c #262525",
"h  c #342E20",
"j  c #322F28",
"k  c #2E302C",
"l  c #353224",
"z  c #3C3522",
"x  c #3C3B2D",
"c  c #35352D",
"v  c #3C3D34",
"b  c #2A2C30",
"n  c #563F0F",
"m  c #402F17",
"M  c #423316",
"N  c #4B3913",
"B  c #42361C",
"V  c #45391B",
"C  c #4B3D1B",
"Z  c #513E19",
"A  c #49380E",
"S  c #443C24",
"D  c #493F22",
"F  c #423D2B",
"G  c #443F30",
"H  c #3E483A",
"J  c #52420F",
"K  c #4E411D",
"L  c #54441B",
"P  c #59461A",
"I  c #5B491C",
"U  c #544217",
"Y  c #604D1C",
"T  c #634C15",
"R  c #6A551C",
"E  c #745A1C",
"W  c #7F6216",
"Q  c #4C4224",
"!  c #4C442A",
"~  c #4E492E",
"^  c #474429",
"/  c #524622",
"(  c #554A26",
")  c #5C4C24",
"_  c #524B2C",
"`  c #594E2B",
"'  c #504628",
"]  c #5E5126",
"[  c #5B522C",
"{  c #53512E",
"}  c #444234",
"|  c #4B4532",
" . c #4D4832",
".. c #47473B",
"X. c #524C34",
"o. c #5D5434",
"O. c #55533C",
"+. c #5A563C",
"@. c #634F23",
"#. c #635125",
"$. c #685625",
"%. c #6B5924",
"&. c #63562B",
"*. c #6A5B2B",
"=. c #635B2F",
"-. c #645B33",
";. c #6B5E31",
":. c #625A38",
">. c #6C612E",
",. c #786628",
"<. c #6C6333",
"1. c #65603B",
"2. c #736633",
"3. c #766A33",
"4. c #786B3A",
"5. c #7D723D",
"6. c #655E42",
"7. c #696546",
"8. c #777248",
"9. c #7D7D5C",
"0. c #8E6A0E",
"q. c #876718",
"w. c #997318",
"e. c #97700C",
"r. c #A37A0F",
"t. c #87712A",
"y. c #897633",
"u. c #947F38",
"i. c #877B47",
"p. c #B78706",
"a. c #AB841A",
"s. c #BA8B11",
"d. c #8E833E",
"f. c #9B8537",
"g. c #A88A29",
"h. c #B89426",
"j. c #A48B33",
"k. c #BE9E30",
"l. c #AE8F33",
"z. c #D29D06",
"x. c #CC9B18",
"c. c #D7A418",
"v. c #DBA30D",
"b. c #E1AF1B",
"n. c #E8B51F",
"m. c #C49C34",
"M. c #CFA32B",
"N. c #DAAC23",
"B. c #D6A827",
"V. c #DEB32D",
"C. c #CBA63A",
"Z. c #D5A936",
"A. c #DEB736",
"S. c #EDBA24",
"D. c #E8B929",
"F. c #E6BC39",
"G. c #EABB37",
"H. c #F3C52C",
"J. c #FFDA22",
"K. c #F4C538",
"L. c #FFDC3B",
"P. c #EAC13D",
"I. c #FFEB24",
"U. c #8E8142",
"Y. c #998642",
"T. c #9D9049",
"R. c #878359",
"E. c #958B56",
"W. c #A6964C",
"Q. c #B39A45",
"!. c #B49A49",
"~. c #A69955",
"^. c #B19F50",
"/. c #B7A047",
"(. c #AFA55E",
"). c #B4AC6D",
"_. c #BDB36C",
"`. c #A4AA7C",
"'. c #BBB370",
"]. c #CAA948",
"[. c #DCB642",
"{. c #DEB84B",
"}. c #C9AB56",
"|. c #D0B54E",
" X c #E3BA4A",
".X c #E3BD52",
"XX c #EAC34D",
"oX c #E2C04D",
"OX c #F5CC47",
"+X c #FBD14F",
"@X c #E5C154",
"#X c #EAC657",
"$X c #F8D458",
"%X c #D7C36B",
"&X c #E1CA74",
"*X c #EBD47B",
"=X c #E9D675",
"-X c #F3DB7C",
";X c #F5DC74",
":X c #FEE57E",
">X c #B4B993",
",X c #B3B78A",
"<X c #C7C081",
"1X c #D6D38A",
"2X c #E8D486",
"3X c #F1DD81",
"4X c #F5E28A",
"5X c #FEEE8A",
"6X c #FFF689",
"7X c #FFEF93",
"8X c #FEF294",
"9X c #FFFB9B",
"0X c #ECE59C",
"qX c #FAF6B0",
"wX c #F6F9C1",
/* pixels */
"                          [.#X@X X X{.                          ",
"                      -X8X3X%X}.].Z.Z.G.XX                      ",
"                M.5XqX>X8.&.C C t t R E w.c.P.&X                ",
"              XX8X,X^ 7 6 6 #.C ! Q V 4 : Z q.v.F.              ",
"            +X1XH o T ] :._  ._ _ D c ( ( ) ; @.s.S.            ",
"          K.'.u 7 { _ -.G +.| j f z B y _ S ,.B q g.OX          ",
"        S.(.- J [ <.S ~ :.+. .i.4.F ) ) m 3 _ / L i Q.$X        ",
"      v.|.c 1 <./ V ) ` ~ ..x 5.t.B D / ) @.3 S 2.2 u %X#X      ",
"    x.F.O.N 2.i U K *.[ x  .X.x F #.#.B ( ].@.a 0 3.2  .5XC.    ",
"    n.U.q V ' U %.U ( ( C 0 f l q h F #.C @.) U p ! S 2 ).:X    ",
"    A. .p 3.M P &.V u 9 @ Y U < $ % $ 0 Y C ` / P 3 -.A ! 9X    ",
"  b.f.a C &.%.p N a # X f.,.> > $ > , % > #.[ X.C V S 0 . <X;X  ",
"  S.2.3 <.B K K u 0 . ~.T.X - $ 8.q % 4 $ w -.O.Q L 4 l q E.8X  ",
"c.V.*.p u V P 9 S : ..0Xo # $ e g.S # # > $ } 7.X.U h 0 3 ^ 8X@X",
"N.V.; 0 2.t L 0 , . _.).. s +.R.,.t.#.Q 9 X } i.} p *.g , Q 4X*X",
"N.h.o.^ i V V V 0 X oXY.. y.l.9.-.T t./.3 g _ o.| + a W.Y.` 2X4X",
"N.a.d.T.Q t t &.F X B.j.6 h.>.R.i.E Y j.4._ z g E./.+ -.X.Q *X4X",
"V.N.= # K V K B e & w.H.q J T.R.>.E q.,.) q.c ..E.].Q _ v ) *X4X",
"A.D.N f =.p L a s > u J.g.# > $ X $ % . g.R b 7.^ 8 ~ z e L 4X3X",
"  N.q.B w K C U u L * q.I.g.w # . . 5 C.g.- :.O.S C Q f . ;.9X  ",
"  P.e.> *.[ y Z C i L $ q.J.L.|._.1X6XQ.X _ <.o.V t ' y.O W.8X  ",
"    z.C 9 l Y V L V u / d N 0.Z.=X,XO.O P %.3.C N Q F y A ;X    ",
"    D.e.4 2./ 8 #.$.S h ` v b : < O 6 $.Y ( V P r S u.1 y.6X    ",
"    &Xz.@.r Q &.P *./ ` c v F o.( ( &.C K K / ) [ ` < N $X2X    ",
"      F.s.4 I _ Q *.D ( o. .F ^ Q Q V #.@.V V z ( ,.3 m.;X      ",
"        n.l.i A ;.V &.X.X.O.6.!.! h 4.Q.Z S u 2.Z + a.+X        ",
"          H.!.a 1 ( -.! 7.} O.! F S a ~ u *.*.: q r.H.          ",
"            +X%X1.. 7 *.!  .' v D  .S ' [ 4 B / r.S.            ",
"              #X8X`.-.2 . Z m ( D Q / 3 , C 0.z.F.              ",
"                C.5XwX>Xi.&.P Z y I P E r.c.G.&X                ",
"                      -X8X3X%X}.].m.Z.G.XX                      ",
"                          [..X#X X X.X                          "
};
